<?xml version="1.0" encoding="utf-8"?>
<!-- Generator: Adobe Illustrator 24.3.0, SVG Export Plug-In . SVG Version: 6.00 Build 0)  -->
<svg version="1.1" id="Layer_1" xmlns="http://www.w3.org/2000/svg" xmlns:xlink="http://www.w3.org/1999/xlink" x="0px" y="0px"
	 viewBox="0 0 123 42.2" style="enable-background:new 0 0 123 42.2;" xml:space="preserve">
<style type="text/css">
	.st0{fill:#00B3EA;}
	.st1{fill:#FFFFFF;}
</style>
<polygon class="st0" points="123,36.1 91.5,42.2 91.5,5 117.9,0 "/>
<path class="st0" d="M14,28.7c0,3.6-3.1,5.6-7.1,5.6c-2.5,0-5-1.2-6.9-3.2l3.4-3.4c1,1.2,2.4,2.1,3.5,2.2C8.1,30,9.1,29.6,9.2,29
	c0.4-1.3-2-1.4-2.7-1.6c-2.8-0.8-6-2-6-5.4c0-4.1,4.3-5.5,6.4-5.5c2.5,0,4.9,1.1,6.9,3.1L10.5,23c-0.9-1.2-2.5-2.1-3.6-2.1
	c-0.6,0-1.7,0.2-1.7,1.3C5.3,24.3,14,23.3,14,28.7z"/>
<path class="st0" d="M33,31.1c-2,2.2-4.5,3.2-7.2,3.2c-5,0-9.1-3.8-9.1-8.9s4.1-8.9,9.1-8.9c2.7,0,5.3,1,7.2,3.2L29.4,23
	c-0.8-1.8-2.5-2.2-3.6-2.2c-2.1,0-3.9,1.9-3.9,4.7c0,2.7,1.8,4.6,3.9,4.6c1.2,0,2.9-0.3,3.6-2.2L33,31.1z"/>
<path class="st0" d="M53.7,25.4c0,5.1-4.1,8.9-9.1,8.9c-5,0-9.1-3.8-9.1-8.9s4.1-8.9,9.1-8.9C49.6,16.5,53.7,20.3,53.7,25.4z
	 M40.6,25.4c0,2.7,1.8,4.6,3.9,4.6c2.2,0,4-1.9,4-4.6c0-2.8-1.8-4.7-4-4.7C42.4,20.8,40.6,22.7,40.6,25.4z"/>
<path class="st0" d="M56.9,16.7h5.2v9.9c0,2.7,0.7,3.8,2.7,3.8c2.1,0,3.3-1.1,3.3-3.8v-9.9h5.2V34h-5.2v-1.6c-1,1.2-3.1,1.9-4.6,1.9
	c-4.9,0-6.6-2.3-6.6-7.7V16.7z"/>
<path class="st0" d="M86.1,30c0.9,0,1.5-0.4,2.2-0.9v4.3c-0.8,0.5-1.8,0.9-2.8,0.9c-4.4,0-6.4-1.9-6.4-7.6V21h-1.9v-4.3H79v-5h5.2v5
	h4.1V21h-4.1v5.7C84.2,27.9,84.1,30,86.1,30z"/>
<path class="st1" d="M109.8,25.7l5.6,8.3h-6.3l-4.8-7.1h-4.2V34h-5.6V7.8H105c5.4,0,9.7,4.1,9.7,9.6C114.7,21,112.8,24.1,109.8,25.7
	z M100.1,22.2h4.9c2.3,0,4.1-2.1,4.1-4.9s-1.9-4.9-4.1-4.9h-4.9V22.2z"/>
</svg>
